<svg width="358" height="38" viewBox="0 0 358 38" fill="none" xmlns="http://www.w3.org/2000/svg">
<path d="M16.52 2.91999C20.808 2.91999 24.504 4.27999 27.608 7L23.624 11.176C22.44 10.28 21.336 9.63999 20.312 9.256C19.32 8.84 18.168 8.632 16.856 8.632C14.392 8.632 12.424 9.608 10.952 11.56C9.47999 13.48 8.74399 16.408 8.74399 20.344C8.74399 24.6 9.30398 27.624 10.424 29.416C11.544 31.176 13.288 32.056 15.656 32.056C17.32 32.056 18.824 31.688 20.168 30.952V23.416H15.848L15.08 17.848H27.8V34.312C26.072 35.432 24.168 36.296 22.088 36.904C20.008 37.512 17.928 37.816 15.848 37.816C10.792 37.816 6.98398 36.344 4.42398 33.4C1.86398 30.424 0.583984 26.072 0.583984 20.344C0.583984 16.696 1.27198 13.56 2.64798 10.936C4.05598 8.312 5.95998 6.328 8.35998 4.98399C10.792 3.60799 13.512 2.91999 16.52 2.91999Z" fill="#141414"/>
<path d="M54.4175 37H47.8415L47.5055 33.784C45.6495 36.472 43.0735 37.816 39.7775 37.816C37.4415 37.816 35.6655 37.112 34.4495 35.704C33.2655 34.296 32.6735 32.328 32.6735 29.8V11.512H40.2575V28.84C40.2575 30.088 40.4495 30.968 40.8335 31.48C41.2495 31.96 41.8735 32.2 42.7055 32.2C44.3055 32.2 45.6815 31.208 46.8335 29.224V11.512H54.4175V37Z" fill="#141414"/>
<path d="M69.3582 10.696C71.1822 10.696 72.8942 10.968 74.4942 11.512C76.0942 12.056 77.5022 12.824 78.7182 13.816L75.9342 18.088C73.8542 16.776 71.7582 16.12 69.6462 16.12C68.6542 16.12 67.8862 16.296 67.3422 16.648C66.8302 16.968 66.5742 17.432 66.5742 18.04C66.5742 18.52 66.6862 18.92 66.9102 19.24C67.1662 19.528 67.6622 19.832 68.3982 20.152C69.1342 20.472 70.2702 20.856 71.8062 21.304C74.4622 22.072 76.4302 23.08 77.7102 24.328C79.0222 25.544 79.6782 27.24 79.6782 29.416C79.6782 31.144 79.1822 32.648 78.1902 33.928C77.1982 35.176 75.8382 36.136 74.1102 36.808C72.3822 37.48 70.4622 37.816 68.3502 37.816C66.2062 37.816 64.2062 37.48 62.3502 36.808C60.5262 36.136 58.9742 35.208 57.6942 34.024L61.3902 29.896C63.5342 31.56 65.7902 32.392 68.1582 32.392C69.3102 32.392 70.2062 32.184 70.8462 31.768C71.5182 31.352 71.8542 30.76 71.8542 29.992C71.8542 29.384 71.7262 28.904 71.4702 28.552C71.2142 28.2 70.7182 27.88 69.9822 27.592C69.2462 27.272 68.0782 26.888 66.4782 26.44C63.9502 25.704 62.0622 24.68 60.8142 23.368C59.5662 22.056 58.9422 20.424 58.9422 18.472C58.9422 17 59.3582 15.688 60.1902 14.536C61.0542 13.352 62.2702 12.424 63.8382 11.752C65.4382 11.048 67.2782 10.696 69.3582 10.696Z" fill="#141414"/>
<path d="M99.5694 35.8C98.6414 36.44 97.5534 36.936 96.3054 37.288C95.0894 37.64 93.8734 37.816 92.6574 37.816C87.0894 37.784 84.3054 34.712 84.3054 28.6V16.792H80.7054V11.512H84.3054V5.99199L91.8894 5.12799V11.512H97.7454L96.9294 16.792H91.8894V28.504C91.8894 29.688 92.0814 30.536 92.4654 31.048C92.8494 31.56 93.4574 31.816 94.2894 31.816C95.1534 31.816 96.0654 31.544 97.0254 31L99.5694 35.8Z" fill="#141414"/>
<path d="M121.794 29.608C121.794 30.568 121.922 31.272 122.178 31.72C122.466 32.168 122.914 32.504 123.522 32.728L121.938 37.672C120.37 37.544 119.09 37.208 118.098 36.664C117.106 36.088 116.338 35.192 115.794 33.976C114.13 36.536 111.57 37.816 108.114 37.816C105.586 37.816 103.57 37.08 102.066 35.608C100.562 34.136 99.8105 32.216 99.8105 29.848C99.8105 27.064 100.834 24.936 102.882 23.464C104.93 21.992 107.89 21.256 111.762 21.256H114.354V20.152C114.354 18.648 114.034 17.624 113.394 17.08C112.754 16.504 111.634 16.216 110.034 16.216C109.202 16.216 108.194 16.344 107.01 16.6C105.826 16.824 104.61 17.144 103.362 17.56L101.634 12.568C103.234 11.96 104.866 11.496 106.53 11.176C108.226 10.856 109.794 10.696 111.234 10.696C114.882 10.696 117.554 11.448 119.25 12.952C120.946 14.456 121.794 16.712 121.794 19.72V29.608ZM110.322 32.392C112.05 32.392 113.394 31.576 114.354 29.944V25.432H112.482C110.754 25.432 109.458 25.736 108.594 26.344C107.762 26.952 107.346 27.896 107.346 29.176C107.346 30.2 107.602 31 108.114 31.576C108.658 32.12 109.394 32.392 110.322 32.392Z" fill="#141414"/>
<path d="M149.068 11.512L141.052 37H132.076L123.868 11.512H132.124L136.636 31.24L141.34 11.512H149.068Z" fill="#141414"/>
<path d="M162.407 10.696C166.311 10.696 169.367 11.896 171.575 14.296C173.783 16.664 174.887 19.992 174.887 24.28C174.887 27 174.375 29.384 173.351 31.432C172.359 33.448 170.919 35.016 169.031 36.136C167.175 37.256 164.967 37.816 162.407 37.816C158.535 37.816 155.479 36.632 153.239 34.264C151.031 31.864 149.927 28.52 149.927 24.232C149.927 21.512 150.423 19.144 151.415 17.128C152.439 15.08 153.879 13.496 155.735 12.376C157.623 11.256 159.847 10.696 162.407 10.696ZM162.407 16.264C160.871 16.264 159.719 16.92 158.951 18.232C158.183 19.512 157.799 21.512 157.799 24.232C157.799 27.016 158.167 29.048 158.903 30.328C159.671 31.608 160.839 32.248 162.407 32.248C163.943 32.248 165.095 31.608 165.863 30.328C166.631 29.016 167.015 27 167.015 24.28C167.015 21.496 166.631 19.464 165.863 18.184C165.127 16.904 163.975 16.264 162.407 16.264Z" fill="#141414"/>
<path d="M223.956 37H216.228L215.652 23.992C215.492 20.888 215.412 18.12 215.412 15.688C215.412 13.832 215.46 12.072 215.556 10.408L210.42 33.496H202.98L197.508 10.408C197.7 13.192 197.796 15.816 197.796 18.28C197.796 20.136 197.748 22.072 197.652 24.088L197.076 37H189.396L191.892 3.736H201.828L206.82 26.296L211.476 3.736H221.46L223.956 37Z" fill="#141414"/>
<path d="M250.747 23.752C250.747 24.808 250.699 25.72 250.603 26.488H234.811C235.067 28.632 235.675 30.136 236.635 31C237.595 31.864 238.923 32.296 240.619 32.296C241.643 32.296 242.635 32.12 243.595 31.768C244.555 31.384 245.595 30.808 246.715 30.04L249.835 34.264C246.859 36.632 243.547 37.816 239.899 37.816C235.771 37.816 232.603 36.6 230.395 34.168C228.187 31.736 227.083 28.472 227.083 24.376C227.083 21.784 227.547 19.464 228.475 17.416C229.403 15.336 230.763 13.704 232.555 12.52C234.347 11.304 236.491 10.696 238.987 10.696C242.667 10.696 245.547 11.848 247.627 14.152C249.707 16.456 250.747 19.656 250.747 23.752ZM243.307 21.592C243.243 17.688 241.867 15.736 239.179 15.736C237.867 15.736 236.843 16.216 236.107 17.176C235.403 18.136 234.971 19.72 234.811 21.928H243.307V21.592Z" fill="#141414"/>
<path d="M269.935 10.696C272.143 10.696 273.871 11.368 275.119 12.712C276.367 14.056 276.991 15.944 276.991 18.376V37H269.407V19.672C269.407 18.392 269.199 17.512 268.783 17.032C268.399 16.52 267.807 16.264 267.007 16.264C265.471 16.264 263.999 17.368 262.591 19.576V37H255.007V11.512H261.631L262.159 14.536C263.247 13.256 264.415 12.296 265.663 11.656C266.943 11.016 268.367 10.696 269.935 10.696Z" fill="#141414"/>
<path d="M305.558 1.38399V37H298.838L298.454 34.024C296.662 36.552 294.246 37.816 291.206 37.816C288.038 37.816 285.622 36.6 283.958 34.168C282.326 31.736 281.51 28.408 281.51 24.184C281.51 21.592 281.942 19.272 282.806 17.224C283.67 15.176 284.886 13.576 286.454 12.424C288.054 11.272 289.878 10.696 291.926 10.696C294.358 10.696 296.374 11.496 297.974 13.096V0.567993L305.558 1.38399ZM293.558 32.248C295.318 32.248 296.79 31.288 297.974 29.368V18.376C297.366 17.64 296.742 17.096 296.102 16.744C295.494 16.392 294.79 16.216 293.99 16.216C292.582 16.216 291.462 16.872 290.63 18.184C289.798 19.496 289.382 21.512 289.382 24.232C289.382 27.208 289.734 29.288 290.438 30.472C291.174 31.656 292.214 32.248 293.558 32.248Z" fill="#141414"/>
<path d="M333.716 23.752C333.716 24.808 333.668 25.72 333.572 26.488H317.78C318.036 28.632 318.644 30.136 319.604 31C320.564 31.864 321.892 32.296 323.588 32.296C324.612 32.296 325.604 32.12 326.564 31.768C327.524 31.384 328.564 30.808 329.684 30.04L332.804 34.264C329.828 36.632 326.516 37.816 322.868 37.816C318.74 37.816 315.572 36.6 313.364 34.168C311.156 31.736 310.052 28.472 310.052 24.376C310.052 21.784 310.516 19.464 311.444 17.416C312.372 15.336 313.732 13.704 315.524 12.52C317.316 11.304 319.46 10.696 321.956 10.696C325.636 10.696 328.516 11.848 330.596 14.152C332.676 16.456 333.716 19.656 333.716 23.752ZM326.276 21.592C326.212 17.688 324.836 15.736 322.148 15.736C320.836 15.736 319.812 16.216 319.076 17.176C318.372 18.136 317.94 19.72 317.78 21.928H326.276V21.592Z" fill="#141414"/>
<path d="M346.952 10.696C348.776 10.696 350.488 10.968 352.088 11.512C353.688 12.056 355.096 12.824 356.312 13.816L353.528 18.088C351.448 16.776 349.352 16.12 347.24 16.12C346.248 16.12 345.48 16.296 344.936 16.648C344.424 16.968 344.168 17.432 344.168 18.04C344.168 18.52 344.28 18.92 344.504 19.24C344.76 19.528 345.256 19.832 345.992 20.152C346.728 20.472 347.864 20.856 349.4 21.304C352.056 22.072 354.024 23.08 355.304 24.328C356.616 25.544 357.272 27.24 357.272 29.416C357.272 31.144 356.776 32.648 355.784 33.928C354.792 35.176 353.432 36.136 351.704 36.808C349.976 37.48 348.056 37.816 345.944 37.816C343.8 37.816 341.8 37.48 339.944 36.808C338.12 36.136 336.568 35.208 335.288 34.024L338.984 29.896C341.128 31.56 343.384 32.392 345.752 32.392C346.904 32.392 347.8 32.184 348.44 31.768C349.112 31.352 349.448 30.76 349.448 29.992C349.448 29.384 349.32 28.904 349.064 28.552C348.808 28.2 348.312 27.88 347.576 27.592C346.84 27.272 345.672 26.888 344.072 26.44C341.544 25.704 339.656 24.68 338.408 23.368C337.16 22.056 336.536 20.424 336.536 18.472C336.536 17 336.952 15.688 337.784 14.536C338.648 13.352 339.864 12.424 341.432 11.752C343.032 11.048 344.872 10.696 346.952 10.696Z" fill="#141414"/>
</svg>
