<svg width="24" height="24" viewBox="0 0 24 24" fill="none" xmlns="http://www.w3.org/2000/svg">
<path d="M10.9 21L15.45 9H17.55L22.1 21H20L18.925 17.95H14.075L13 21H10.9ZM3 18L1.6 16.6L6.65 11.55C6.06667 10.9667 5.5375 10.3 5.0625 9.55C4.5875 8.8 4.15 7.95 3.75 7H5.85C6.18333 7.65 6.51667 8.21667 6.85 8.7C7.18333 9.18333 7.58333 9.66667 8.05 10.15C8.6 9.6 9.17083 8.82917 9.7625 7.8375C10.3542 6.84583 10.8 5.9 11.1 5H0V3H7V1H9V3H16V5H13.1C12.75 6.2 12.225 7.43333 11.525 8.7C10.825 9.96667 10.1333 10.9333 9.45 11.6L11.85 14.05L11.1 16.1L8.05 12.975L3 18ZM14.7 16.2H18.3L16.5 11.1L14.7 16.2Z" fill="url(#paint0_linear_12_95)"/>
<defs>
<linearGradient id="paint0_linear_12_95" x1="11.05" y1="1" x2="11.05" y2="21" gradientUnits="userSpaceOnUse">
<stop stop-color="#1145FF"/>
<stop offset="1" stop-color="#6B94FF"/>
</linearGradient>
</defs>
</svg>
