<svg width="162" height="33" viewBox="0 0 162 33" fill="none" xmlns="http://www.w3.org/2000/svg">
<path d="M32.132 32H25.048L24.52 20.076C24.3734 17.2307 24.3 14.6933 24.3 12.464C24.3 10.7627 24.344 9.14934 24.432 7.62401L19.724 28.788H12.904L7.88803 7.62401C8.06403 10.176 8.15203 12.5813 8.15203 14.84C8.15203 16.5413 8.10803 18.316 8.02003 20.164L7.49203 32H0.452026L2.74003 1.50801H11.848L16.424 22.188L20.692 1.50801H29.844L32.132 32Z" fill="#141414"/>
<path d="M55.1499 1.50801L54.4019 6.65601H43.6659V13.96H53.0379V19.02H43.6659V26.808H55.1499V32H36.4499V1.50801H55.1499Z" fill="#141414"/>
<path d="M83.106 32H73.91L65.11 8.37201C65.4034 10.6893 65.6234 12.7427 65.77 14.532C65.946 16.292 66.034 18.3893 66.034 20.824V32H59.61V1.50801H68.586L77.606 25.18C76.9607 21.1613 76.638 17.3773 76.638 13.828V1.50801H83.106V32Z" fill="#141414"/>
<path d="M97.2778 1.50801C102.059 1.50801 105.887 2.59334 108.762 4.76401C111.666 6.90534 113.118 10.8507 113.118 16.6C113.118 22.2613 111.71 26.2507 108.894 28.568C106.078 30.856 102.426 32 97.9378 32H88.7858V1.50801H97.2778ZM96.0018 6.74401V26.764H98.3778C100.754 26.764 102.558 26.0307 103.79 24.564C105.022 23.068 105.638 20.4133 105.638 16.6C105.638 13.9893 105.33 11.9653 104.714 10.528C104.098 9.09068 103.262 8.10801 102.206 7.58001C101.15 7.02268 99.8445 6.74401 98.2898 6.74401H96.0018Z" fill="#141414"/>
<path d="M136.146 1.50801L135.398 6.65601H124.662V13.96H134.034V19.02H124.662V26.808H136.146V32H117.446V1.50801H136.146Z" fill="#141414"/>
<path d="M149.988 0.76001C152.276 0.76001 154.256 1.08268 155.928 1.72801C157.63 2.37334 159.17 3.35601 160.548 4.67601L157.204 8.59201C155.122 6.89068 152.892 6.04001 150.516 6.04001C149.255 6.04001 148.258 6.30401 147.524 6.83201C146.791 7.33068 146.424 8.06401 146.424 9.03201C146.424 9.70668 146.586 10.264 146.908 10.704C147.231 11.1147 147.803 11.5107 148.624 11.892C149.446 12.2733 150.678 12.728 152.32 13.256C155.43 14.2533 157.718 15.4853 159.184 16.952C160.651 18.3893 161.384 20.4427 161.384 23.112C161.384 25.0187 160.9 26.7053 159.932 28.172C158.964 29.6093 157.571 30.7387 155.752 31.56C153.934 32.352 151.778 32.748 149.284 32.748C146.791 32.748 144.576 32.352 142.64 31.56C140.734 30.768 139.091 29.712 137.712 28.392L141.364 24.388C142.538 25.3853 143.74 26.1333 144.972 26.632C146.234 27.1307 147.598 27.38 149.064 27.38C150.56 27.38 151.734 27.0573 152.584 26.412C153.464 25.7373 153.904 24.8133 153.904 23.64C153.904 22.8773 153.743 22.2467 153.42 21.748C153.098 21.22 152.54 20.7507 151.748 20.34C150.956 19.9293 149.812 19.4893 148.316 19.02C144.943 17.9933 142.538 16.732 141.1 15.236C139.692 13.74 138.988 11.848 138.988 9.56001C138.988 7.80001 139.458 6.26001 140.396 4.94001C141.335 3.59068 142.64 2.56401 144.312 1.86001C145.984 1.12668 147.876 0.76001 149.988 0.76001Z" fill="#141414"/>
</svg>
